<svg width="80" height="47" viewBox="0 0 80 47" fill="none" xmlns="http://www.w3.org/2000/svg">
<g clip-path="url(#clip0_14401_322)">
<path d="M70.3333 34.617C70.0198 34.617 69.7847 34.4668 69.6018 34.1163C69.445 33.8158 69.3405 33.3151 69.3405 32.7141V14.236C69.3405 13.6351 69.4189 13.1343 69.6018 12.8339C69.7847 12.5334 70.0198 12.3832 70.3333 12.3832H72.0838C72.4757 12.3832 72.8154 12.4333 73.1028 12.4833C73.3901 12.5835 73.6514 12.7337 73.8343 13.0342C74.0433 13.3346 74.1739 13.7353 74.2785 14.3362C74.383 14.887 74.4352 15.6882 74.4352 16.6397V30.3606C74.4352 31.6125 74.3568 32.5138 74.1739 33.1147C73.9911 33.7157 73.7298 34.1163 73.3901 34.3166C73.0505 34.5169 72.6063 34.617 72.0838 34.567L70.3333 34.617ZM64.7161 1.61681C64.4026 1.66689 64.1413 1.81712 63.9845 2.11758C63.8278 2.41803 63.7494 2.91879 63.7494 3.51971V43.4805C63.7494 44.0814 63.8278 44.5321 64.0107 44.8827C64.1674 45.1831 64.4287 45.3834 64.7422 45.3834H72.0054C73.5208 45.3834 74.8271 45.083 75.8722 44.482C76.9173 43.8811 77.7533 42.9297 78.3803 41.7279C79.0074 40.526 79.4777 38.9236 79.7389 37.0207C80.0263 35.1178 80.157 32.9144 80.157 30.3606V16.6397C80.157 14.0858 80.0263 11.8824 79.7389 9.97954C79.4515 8.07664 79.0074 6.52428 78.3803 5.32245C77.7533 4.07055 76.9173 3.16918 75.8722 2.56826C74.8271 1.96735 73.5469 1.66689 72.0054 1.66689L64.7161 1.61681ZM55.206 28.007C55.206 29.2088 55.1798 30.3105 55.1537 31.2619C55.1014 32.2134 54.9969 33.0146 54.8402 33.7157C54.6834 34.4167 54.4222 34.9175 54.0564 35.268C53.7167 35.6186 53.2465 35.8189 52.6455 35.8189C52.0446 35.8189 51.5743 35.6186 51.2347 35.268C50.8689 34.9175 50.6338 34.4167 50.4509 33.7157C50.2941 33.0647 50.1896 32.2134 50.1374 31.2619C50.0851 30.3105 50.059 29.2088 50.0851 28.007V18.9933C50.0851 17.7914 50.1112 16.6898 50.1374 15.7383C50.1896 14.7869 50.2941 13.9856 50.4509 13.2846C50.6077 12.5835 50.8689 12.0827 51.2347 11.7322C51.5743 11.3817 52.0446 11.1814 52.6455 11.1814C53.2465 11.1814 53.7167 11.3817 54.0564 11.7322C54.4222 12.0827 54.6573 12.5835 54.8402 13.2846C54.9969 13.9356 55.1014 14.7869 55.1537 15.7383C55.206 16.6898 55.206 17.7914 55.206 18.9933V28.007ZM60.7971 15.6882C60.7971 14.9872 60.7709 14.1359 60.7187 13.1343C60.6664 12.1328 60.5619 11.0812 60.379 9.92946C60.1962 8.77771 59.9349 7.67603 59.5952 6.57436C59.2295 5.47268 58.7592 4.47116 58.1583 3.56979C57.5574 2.66841 56.7997 1.91727 55.8853 1.36643C54.9708 0.815594 53.8735 0.565213 52.5933 0.515137C51.3131 0.515137 50.2158 0.815594 49.3013 1.36643C48.3869 1.91727 47.6292 2.66841 47.0283 3.56979C46.4274 4.47116 45.9571 5.47268 45.5913 6.57436C45.2256 7.67603 44.9643 8.82779 44.8075 9.92946C44.6246 11.0812 44.5201 12.1328 44.4679 13.1343C44.4156 14.1359 44.3895 14.9872 44.3895 15.6882V31.312C44.3895 32.0131 44.4156 32.8644 44.4679 33.8659C44.5201 34.8674 44.6246 35.919 44.8075 37.0708C44.9643 38.2225 45.2517 39.3242 45.5913 40.4259C45.9571 41.5275 46.4274 42.5291 47.0283 43.4805C47.6292 44.3819 48.3869 45.133 49.3013 45.6338C50.2158 46.1846 51.3131 46.4851 52.5933 46.4851C53.8735 46.4851 54.9708 46.1846 55.8853 45.6338C56.7997 45.083 57.5574 44.3819 58.1583 43.4805C58.7592 42.5792 59.2295 41.5776 59.5952 40.4259C59.961 39.3242 60.2223 38.1724 60.379 37.0708C60.5358 35.919 60.6664 34.8674 60.7187 33.8659C60.7709 32.8644 60.7971 32.0131 60.7971 31.312V15.6882ZM36.2118 28.007C36.2118 29.2088 36.1857 30.3105 36.1596 31.2619C36.1073 32.2134 36.0028 33.0146 35.8461 33.7157C35.6893 34.4167 35.428 34.9175 35.0623 35.268C34.7226 35.6186 34.2523 35.8189 33.6514 35.8189C33.0505 35.8189 32.5802 35.6186 32.2406 35.268C31.8748 34.9175 31.6397 34.4167 31.4568 33.7157C31.3 33.0647 31.1955 32.2134 31.1432 31.2619C31.091 30.3105 31.0649 29.2088 31.091 28.007V18.9933C31.091 17.7914 31.1171 16.6898 31.1432 15.7383C31.1955 14.7869 31.3 13.9856 31.4568 13.2846C31.6135 12.5835 31.8748 12.0827 32.2406 11.7322C32.5802 11.3817 33.0505 11.1814 33.6514 11.1814C34.2523 11.1814 34.7226 11.3817 35.0623 11.7322C35.428 12.0827 35.6632 12.5835 35.8461 13.2846C36.0028 13.9356 36.1073 14.7869 36.1596 15.7383C36.2118 16.6898 36.2118 17.7914 36.2118 18.9933V28.007ZM41.8291 15.6882C41.8291 14.9872 41.803 14.1359 41.7507 13.1343C41.6984 12.1328 41.5939 11.0812 41.411 9.92946C41.2282 8.77771 40.9669 7.67603 40.6272 6.57436C40.2615 5.47268 39.7912 4.47116 39.1903 3.56979C38.5894 2.66841 37.8317 1.91727 36.9173 1.36643C36.0028 0.815594 34.9055 0.565213 33.6253 0.515137C32.3451 0.515137 31.2478 0.815594 30.3333 1.36643C29.4189 1.91727 28.6612 2.66841 28.0603 3.56979C27.4594 4.47116 26.9891 5.47268 26.6233 6.57436C26.2576 7.67603 25.9963 8.82779 25.8395 9.92946C25.6566 11.0812 25.5521 12.1328 25.4999 13.1343C25.4476 14.1359 25.4215 14.9872 25.4215 15.6882V31.312C25.4215 32.0131 25.4476 32.8644 25.4999 33.8659C25.5521 34.8674 25.6566 35.919 25.8395 37.0708C25.9963 38.2225 26.2837 39.3242 26.6233 40.4259C26.9891 41.5275 27.4594 42.5291 28.0603 43.4805C28.6612 44.3819 29.4189 45.133 30.3333 45.6338C31.2478 46.1846 32.3451 46.4851 33.6253 46.4851C34.9055 46.4851 36.0028 46.1846 36.9173 45.6338C37.8317 45.083 38.5894 44.3819 39.1903 43.4805C39.7912 42.5792 40.2615 41.5776 40.6272 40.4259C40.993 39.3242 41.2543 38.1724 41.411 37.0708C41.5678 35.919 41.6984 34.8674 41.7507 33.8659C41.803 32.8644 41.8291 32.0131 41.8291 31.312V15.6882ZM22.5476 1.61681C23.2007 1.61681 23.5142 2.2678 23.5142 3.46963V10.4803C23.5142 11.0812 23.4359 11.5319 23.2791 11.8824C23.1223 12.233 22.8611 12.3832 22.5476 12.3832H14.0303C13.7167 12.3832 13.4816 12.5334 13.2987 12.8339C13.1158 13.1343 13.0374 13.6351 13.0374 14.236V43.5306C13.0374 44.1315 12.9591 44.5822 12.8023 44.9327C12.6455 45.2332 12.3843 45.4335 12.0707 45.4335H8.23012C7.9166 45.4335 7.68146 45.2833 7.49857 44.9327C7.34181 44.5822 7.2373 44.1315 7.2373 43.5306V3.51971C7.2373 2.91879 7.31568 2.41803 7.49857 2.11758C7.68146 1.81712 7.9166 1.66689 8.23012 1.66689L22.5476 1.61681Z" fill="#B59571"/>
<path d="M15.2843 25.4031C12.8546 25.0025 0.993032 28.7081 0.104724 24.702C-1.3845 18.0419 11.0779 21.7976 12.7501 21.8977C13.5861 21.9478 14.6312 22.2483 15.2321 21.9478C15.6501 21.6974 15.9375 20.3954 16.4078 19.8947C17.4529 18.6929 19.1511 19.3438 20.6142 19.5942C21.607 19.7445 22.5737 19.9448 23.6188 20.095C22.1295 20.4956 20.5358 20.8962 18.9682 21.2968C18.7853 21.3469 18.4979 21.1967 18.3673 21.5973C19.961 22.098 21.7638 22.1982 23.4881 22.4486C21.7899 22.9493 19.8826 23.0495 18.2105 23.6504C18.315 24.0009 18.6286 23.9008 18.8114 23.9509C20.3007 24.1512 21.9467 24.4015 23.5143 24.5518C21.8944 25.0525 20.0133 25.1527 18.3934 25.7536C18.4457 26.2544 18.7853 26.1041 18.9421 26.1041C20.4313 26.4547 22.1034 26.8553 23.6449 27.1057C21.9467 27.356 19.8565 28.1072 18.106 28.3075C16.7474 28.4577 15.9375 26.9554 15.2843 25.4031Z" fill="#B59571"/>
<path d="M11.0779 25.8036C12.959 25.5031 14.5528 25.2527 15.2843 25.3529C15.6239 26.1541 15.9636 26.9053 16.4339 27.4561C16.878 28.0069 17.4006 28.3575 18.0799 28.2573C19.0465 28.1572 20.1177 27.8567 21.1628 27.6063C21.9205 27.406 22.652 27.2057 23.3313 27.1056C22.652 27.0054 21.9727 26.8552 21.2673 26.705C20.4574 26.5547 19.6736 26.3544 18.942 26.1541H18.8114C18.6285 26.1541 18.3934 26.1541 18.3673 25.7535V25.7034H18.3934C19.2817 25.3529 20.2745 25.1526 21.2673 25.0024C21.9466 24.9022 22.6259 24.752 23.2529 24.6018C22.0772 24.4515 20.8493 24.3013 19.6997 24.1511C19.4123 24.101 19.1249 24.0509 18.8375 24.0509H18.7069C18.524 24.0509 18.315 24.0509 18.2105 23.7505L18.1844 23.7004H18.2105C19.1511 23.3498 20.17 23.1495 21.1889 22.9993C21.8682 22.8992 22.5737 22.7489 23.2268 22.5987C22.8872 22.5486 22.5214 22.4986 22.1818 22.4485C20.8754 22.2982 19.543 22.148 18.3673 21.7975H18.315L18.3411 21.7474C18.4456 21.447 18.6285 21.447 18.7853 21.447H18.942L20.1961 21.1465C21.2412 20.8961 22.3124 20.5957 23.3052 20.3453C22.7043 20.2451 22.1034 20.145 21.5286 20.0448C21.2151 19.9947 20.9277 19.9447 20.588 19.8946L19.8042 19.7444C18.5501 19.494 17.2438 19.1935 16.4077 20.195C16.1987 20.4454 16.0158 20.846 15.8591 21.2466C15.6501 21.6973 15.4672 22.148 15.232 22.2982C14.814 22.4986 14.187 22.4485 13.5599 22.3483C13.2725 22.2982 12.9851 22.2482 12.7239 22.2482C12.4365 22.2482 11.8356 22.0979 11.0518 21.9477C8.23009 21.0964 2.92637 20.0448 0.862355 21.7474C0.130807 22.3483 -0.182713 23.2497 0.130807 24.7019C0.731722 27.4561 6.68861 26.5046 11.0779 25.8036ZM15.2843 25.453C14.5528 25.3529 12.959 25.6033 11.0779 25.9037C6.68861 26.6048 0.705595 27.5562 0.0785537 24.7019C-0.261094 23.1996 0.0785537 22.2482 0.836228 21.5972C2.92637 19.8946 8.23009 20.9462 11.0779 21.497C11.8617 21.6473 12.4626 21.7975 12.75 21.7975C13.0113 21.7975 13.2987 21.8476 13.5861 21.8976C14.2131 21.9978 14.814 22.0479 15.232 21.8476C15.4411 21.7474 15.6239 21.2967 15.833 20.846C16.0158 20.4454 16.1726 20.0448 16.4077 19.7944C17.2699 18.7929 18.5763 19.0934 19.8565 19.3438L20.6403 19.494C20.9277 19.5441 21.2673 19.5941 21.5808 19.6442C22.2601 19.7444 22.9394 19.8946 23.6448 19.9447L23.9322 19.9947L23.671 20.0949C22.5998 20.3954 21.4502 20.6958 20.3006 20.9963L19.0465 21.2967H18.8898C18.7592 21.2967 18.6024 21.2967 18.4979 21.497C19.6736 21.8476 20.9799 21.9978 22.2863 22.148C22.7304 22.1981 23.1484 22.2482 23.5926 22.2982L23.8539 22.3483L23.5926 22.3984C22.861 22.5987 22.0772 22.7489 21.2934 22.8992C20.3006 23.0995 19.2817 23.2497 18.3673 23.6002C18.4456 23.8005 18.6285 23.8005 18.7853 23.8005H18.9159C19.2033 23.8506 19.4907 23.9007 19.7781 23.9007C21.0322 24.101 22.3385 24.2512 23.5926 24.4014L23.8539 24.4515L23.5926 24.5517C22.861 24.752 22.1034 24.9022 21.3457 25.0524C20.379 25.2527 19.4123 25.403 18.524 25.7535C18.5763 26.054 18.7592 26.0039 18.9159 26.0039H19.0465C19.8042 26.1541 20.588 26.3544 21.3718 26.5547C22.1556 26.705 22.9656 26.9053 23.7232 27.0054V27.1056C22.9656 27.2057 22.1034 27.4561 21.2412 27.6564C20.1961 27.9068 19.1249 28.2072 18.1582 28.3074C17.4789 28.4075 16.9303 28.057 16.4861 27.5062C15.9636 27.0054 15.5978 26.2543 15.2843 25.453Z" fill="#B59571"/>
</g>
<defs>
<clipPath id="clip0_14401_322">
<rect width="80" height="46" fill="white" transform="translate(0 0.5)"/>
</clipPath>
</defs>
</svg>
