<svg width="37" height="11" viewBox="0 0 37 11" fill="none" xmlns="http://www.w3.org/2000/svg">
<path d="M26.5688 5.01294V10.5514H29.6458V7.26935H33.133C34.5996 7.25909 35.8458 6.32063 36.3176 5.01294H26.5688Z" fill="#333333"/>
<path d="M26.1587 0.44873C26.3382 2.71027 28.4818 4.50001 31.0972 4.50001C31.1074 4.50001 36.4459 4.50001 36.4459 4.50001C36.4869 4.29488 36.5074 4.0795 36.5074 3.85899C36.5074 1.98206 34.9946 0.464115 33.1228 0.44873H26.1587Z" fill="#333333"/>
<path d="M21.6049 4.4436V4.43847V4.4436C21.6408 4.38206 21.6972 4.34617 21.769 4.34617C21.8715 4.34617 21.9485 4.42822 21.9536 4.52565V10.5H25.0305V0.44873H21.9536C21.5638 0.464115 21.1228 0.746166 20.9587 1.10001L18.5126 6.35129C18.5074 6.37181 18.4972 6.39232 18.4869 6.41283C18.451 6.46411 18.3895 6.50001 18.3177 6.50001C18.2049 6.50001 18.1126 6.4077 18.1126 6.29488V0.44873H15.0356V10.5H18.1126C18.4972 10.4795 18.928 10.1974 19.0921 9.84873L21.6049 4.45899C21.5997 4.45386 21.6049 4.44873 21.6049 4.4436Z" fill="#333333"/>
<path d="M10.1177 4.61796L8.31775 10.5H6.10236L4.30749 4.61283C4.2921 4.52053 4.21005 4.44873 4.10749 4.44873C3.99467 4.44873 3.90749 4.54104 3.90749 4.64873V10.4949H0.830566V0.443604H3.47159H4.25621C4.82031 0.443604 5.41518 0.884629 5.57928 1.42309L7.07672 6.32053C7.15364 6.56668 7.27159 6.56155 7.34852 6.32053L8.84595 1.42309C9.01005 0.879501 9.60493 0.443604 10.169 0.443604H10.9536H13.5947V10.4949H10.5177V4.64873C10.5177 4.64873 10.5177 4.64873 10.5177 4.6436C10.5177 4.53078 10.4254 4.4436 10.3177 4.4436C10.2152 4.44873 10.1331 4.52053 10.1177 4.61796Z" fill="#333333"/>
</svg>
