<svg width="41" height="27" viewBox="0 0 41 27" fill="none" xmlns="http://www.w3.org/2000/svg">
<path d="M37.9998 26.8334H3.33317C1.86095 26.8334 0.666504 25.639 0.666504 24.1667V2.83341C0.666504 1.36119 1.86095 0.166748 3.33317 0.166748H37.9998C39.4721 0.166748 40.6665 1.36119 40.6665 2.83341V24.1667C40.6665 25.639 39.4721 26.8334 37.9998 26.8334ZM20.4887 16.569L20.0898 19.069C20.9676 19.4445 21.9887 19.6634 23.0609 19.6634C23.1465 19.6634 23.2309 19.6623 23.3154 19.659H23.3032C23.4009 19.6645 23.5143 19.6679 23.6298 19.6679C24.8621 19.6679 26.0043 19.2812 26.9421 18.6223L26.9232 18.6345C27.7743 18.0034 28.3209 17.0023 28.3209 15.8734C28.3209 15.8679 28.3209 15.8623 28.3209 15.8567V15.8579C28.3209 14.6356 27.5032 13.6201 25.8909 12.8356C25.4176 12.6045 25.0132 12.3623 24.6332 12.089L24.6587 12.1067C24.4387 11.9623 24.2921 11.7234 24.2776 11.449V11.4467C24.2954 11.1579 24.4609 10.9112 24.6987 10.7801L24.7032 10.7779C25.0165 10.5956 25.3921 10.4879 25.7943 10.4879C25.841 10.4879 25.8876 10.489 25.9343 10.4923H25.9276H26.0165C26.0421 10.4923 26.0721 10.4912 26.1021 10.4912C26.8176 10.4912 27.4965 10.6456 28.1087 10.9223L28.0776 10.9101L28.3376 11.049L28.7365 8.63675C27.9865 8.34008 27.1165 8.16786 26.2065 8.16786C26.1887 8.16786 26.1698 8.16786 26.1521 8.16786H26.1554C26.0843 8.16453 26.0009 8.1623 25.9176 8.1623C24.6998 8.1623 23.5709 8.54786 22.6476 9.20341L22.6654 9.19119C21.8298 9.78675 21.2909 10.7512 21.2909 11.8423V11.8479C21.2798 13.0234 22.1265 14.039 23.8087 14.8701C24.2532 15.0645 24.6365 15.3023 24.9798 15.5879L24.9721 15.5812C25.1665 15.7456 25.2921 15.9867 25.3021 16.2567V16.259V16.2612C25.3021 16.6156 25.091 16.9201 24.7865 17.0567L24.7809 17.059C24.4476 17.2345 24.0521 17.3367 23.6321 17.3367C23.6154 17.3367 23.5976 17.3367 23.5809 17.3367H23.5832C23.5587 17.3367 23.5287 17.3367 23.4998 17.3367C22.5476 17.3367 21.6454 17.1256 20.8365 16.7479L20.8754 16.7645L20.4943 16.5734L20.4887 16.569ZM31.7387 17.8367H35.4221C35.4813 18.0908 35.5972 18.6464 35.7698 19.5034H38.4443L36.1176 8.35786H33.8954C33.8565 8.35453 33.811 8.3523 33.7643 8.3523C33.1398 8.3523 32.6054 8.73897 32.3876 9.28564L32.3843 9.29564L28.1176 19.5034H31.1398L31.7465 17.8379L31.7387 17.8367ZM17.2121 8.35786L15.4054 19.5034H18.2876L20.0932 8.35786H17.2121ZM6.13539 10.6323L8.47984 19.4856H11.5176L16.0454 8.35786H12.9943L10.1787 15.9623L9.88317 14.4167L8.87873 9.29564C8.77762 8.7523 8.30762 8.34564 7.74206 8.34564C7.68428 8.34564 7.6265 8.35008 7.57095 8.35786L7.57762 8.35675H2.92539L2.89095 8.5823C6.47317 9.4923 8.8265 11.4556 9.88651 14.4156C9.54317 13.5356 9.04206 12.7856 8.41317 12.1667L8.41206 12.1656C7.78206 11.519 7.02539 11.0001 6.18206 10.6456L6.13762 10.629L6.13539 10.6323ZM34.9543 15.5445H32.5543C32.7165 15.1164 33.0987 14.0793 33.701 12.4334L33.7521 12.2767C33.7987 12.1612 33.8565 12.0101 33.9298 11.8256C34.0032 11.6412 34.0521 11.4901 34.0854 11.3745L34.2943 12.329L34.9532 15.5401L34.9543 15.5445Z" fill="white"/>
</svg>
