<svg width="34" height="24" viewBox="0 0 34 24" fill="none" xmlns="http://www.w3.org/2000/svg">
<path d="M32.9686 4.37292C32.7799 3.69978 32.4124 3.09036 31.905 2.60943C31.3833 2.11372 30.7439 1.75912 30.0471 1.57911C27.4394 0.891773 16.9918 0.891773 16.9918 0.891773C12.6363 0.842219 8.28188 1.06017 3.95311 1.5444C3.25632 1.73771 2.61809 2.10023 2.09521 2.59971C1.58144 3.09404 1.2093 3.70362 1.0149 4.37153C0.547919 6.88726 0.321025 9.44167 0.337283 12.0003C0.32062 14.5567 0.546957 17.1103 1.0149 19.6291C1.20514 20.2942 1.57589 20.901 2.09104 21.3912C2.6062 21.8814 3.24772 22.2355 3.95311 22.4229C6.59556 23.1089 16.9918 23.1089 16.9918 23.1089C21.3528 23.1585 25.7128 22.9405 30.0471 22.4562C30.7439 22.2762 31.3833 21.9216 31.905 21.4259C32.4188 20.9358 32.784 20.3262 32.9673 19.6624C33.4464 17.1477 33.6794 14.5922 33.6629 12.0323C33.699 9.46147 33.4663 6.89395 32.9686 4.37153V4.37292ZM13.6703 16.7548V7.24725L22.3628 12.0017L13.6703 16.7548Z" fill="#B59571"/>
</svg>
